# Blender v2.76 (sub 0) OBJ File: ''
# www.blender.org
mtllib cubes.mtl
o Cube.005
v 0.784826 -0.250000 -0.250000
v 0.784826 -0.250000 0.250000
v 0.284826 -0.250000 0.250000
v 0.284826 -0.250000 -0.250000
v 0.784826 0.250000 -0.250000
v 0.284826 0.250000 -0.250000
v 0.284826 0.250000 0.250000
v 0.784826 0.250000 0.250000
vn 0.000000 -1.000000 -0.000000
vn 0.000000 1.000000 0.000000
vn 1.000000 -0.000000 0.000000
vn 0.000000 -0.000000 1.000000
vn -1.000000 0.000000 0.000000
vn 0.000000 0.000000 -1.000000
usemtl Material.002
s 1
f 2//1 3//1 4//1
f 6//2 7//2 8//2
f 5//3 8//3 2//3
f 8//4 7//4 3//4
f 7//5 6//5 4//5
f 1//6 4//6 6//6
f 1//1 2//1 4//1
f 5//2 6//2 8//2
f 1//3 5//3 2//3
f 2//4 8//4 3//4
f 3//5 7//5 4//5
f 5//6 1//6 6//6
o Cube.004
v -0.158253 -0.250000 -0.250000
v -0.158253 -0.250000 0.250000
v -0.658253 -0.250000 0.250000
v -0.658253 -0.250000 -0.250000
v -0.158253 0.250000 -0.250000
v -0.658253 0.250000 -0.250000
v -0.658253 0.250000 0.250000
v -0.158253 0.250000 0.250000
vn 0.000000 -1.000000 -0.000000
vn 0.000000 1.000000 0.000000
vn 1.000000 0.000000 0.000000
vn 0.000000 -0.000000 1.000000
vn -1.000000 0.000000 0.000000
vn 0.000000 0.000000 -1.000000
usemtl Material.002
s 1
f 10//7 11//7 12//7
f 14//8 15//8 16//8
f 13//9 16//9 10//9
f 16//10 15//10 11//10
f 15//11 14//11 12//11
f 9//12 12//12 14//12
f 9//7 10//7 12//7
f 13//8 14//8 16//8
f 9//9 13//9 10//9
f 10//10 16//10 11//10
f 11//11 15//11 12//11
f 13//12 9//12 14//12
o Cube.002
v -1.103184 -0.250000 -0.250000
v -1.103184 -0.250000 0.250000
v -1.603184 -0.250000 0.250000
v -1.603184 -0.250000 -0.250000
v -1.103184 0.250000 -0.250000
v -1.603184 0.250000 -0.250000
v -1.603184 0.250000 0.250000
v -1.103184 0.250000 0.250000
vn 0.000000 -1.000000 -0.000000
vn 0.000000 1.000000 0.000000
vn 1.000000 -0.000000 0.000000
vn 0.000000 -0.000000 1.000000
vn -1.000000 -0.000000 0.000000
vn 0.000000 0.000000 -1.000000
usemtl Material.002
s 1
f 18//13 19//13 20//13
f 22//14 23//14 24//14
f 21//15 24//15 18//15
f 24//16 23//16 19//16
f 23//17 22//17 20//17
f 17//18 20//18 22//18
f 17//13 18//13 20//13
f 21//14 22//14 24//14
f 17//15 21//15 18//15
f 18//16 24//16 19//16
f 19//17 23//17 20//17
f 21//18 17//18 22//18
o Cube.003
v 1.815039 -0.250000 -0.250000
v 1.815039 -0.250000 0.250000
v 1.315039 -0.250000 0.250000
v 1.315039 -0.250000 -0.250000
v 1.815039 0.250000 -0.250000
v 1.315039 0.250000 -0.250000
v 1.315039 0.250000 0.250000
v 1.815039 0.250000 0.250000
vn 0.000000 -1.000000 -0.000000
vn 0.000000 1.000000 0.000000
vn 1.000000 0.000000 0.000000
vn 0.000000 -0.000000 1.000000
vn -1.000000 -0.000000 0.000000
vn 0.000000 0.000000 -1.000000
usemtl Material.002
s 1
f 26//19 27//19 28//19
f 30//20 31//20 32//20
f 29//21 32//21 26//21
f 32//22 31//22 27//22
f 31//23 30//23 28//23
f 25//24 28//24 30//24
f 25//19 26//19 28//19
f 29//20 30//20 32//20
f 25//21 29//21 26//21
f 26//22 32//22 27//22
f 27//23 31//23 28//23
f 29//24 25//24 30//24
