# Blender v2.76 (sub 0) OBJ File: ''
# www.blender.org
mtllib cubo_tex.mtl
o Cube
v 0.500000 -0.500000 -0.500000
v 0.500000 -0.500000 0.500000
v -0.500000 -0.500000 0.500000
v -0.500000 -0.500000 -0.500000
v 0.500000 0.500000 -0.500000
v 0.500000 0.500000 0.500000
v -0.500000 0.500000 0.500000
v -0.500000 0.500000 -0.500000
vt 0.729584 0.373622
vt 0.729841 0.599461
vt 0.504002 0.599717
vt 0.277907 0.374135
vt 0.278163 0.599974
vt 0.052325 0.600230
vt 0.955423 0.373366
vt 0.955679 0.599204
vt 0.278420 0.825812
vt 0.051812 0.148553
vt 0.277651 0.148297
vt 0.503746 0.373879
vt 0.052068 0.374392
vt 0.052581 0.826069
vn 0.000000 -1.000000 0.000000
vn 0.000000 1.000000 0.000000
vn 1.000000 0.000000 0.000000
vn -0.000000 0.000000 1.000000
vn -1.000000 -0.000000 -0.000000
vn 0.000000 0.000000 -1.000000
usemtl Material
s off
f 1/1/1 2/2/1 3/3/1
f 8/4/2 7/5/2 6/6/2
f 5/7/3 6/8/3 2/2/3
f 6/6/4 7/5/4 3/9/4
f 3/3/5 7/5/5 8/4/5
f 1/10/6 4/11/6 8/4/6
f 4/12/1 1/1/1 3/3/1
f 5/13/2 8/4/2 6/6/2
f 1/1/3 5/7/3 2/2/3
f 2/14/4 6/6/4 3/9/4
f 4/12/5 3/3/5 8/4/5
f 5/13/6 1/10/6 8/4/6
